# xmcd
#
# Track frame offsets:
#	150
#	13645
#	36102
#	50780
#	69322
#
# Disc length: 1262 seconds
#
# Revision: 1
# Processed by: cddbd v1.4PL0 Copyright (c) Steve Scherf et al.
# Submitted via: audiograbber 1.81.01
#
DISCID=3c04ec05
DTITLE=Starkweathers - 5 Song EP
DYEAR=1994
DGENRE=Country
TTITLE0=Town I Hate
TTITLE1=Danny Taylor
TTITLE2=Burn The Flag
TTITLE3=Most Every Night
TTITLE4=One For Her One For Him
EXTD=
EXTT0=
EXTT1=
EXTT2=
EXTT3=
EXTT4=
PLAYORDER=
